<svg xmlns="http://www.w3.org/2000/svg" xmlns:xlink="http://www.w3.org/1999/xlink" width="500" zoomAndPan="magnify" viewBox="0 0 375 374.999991" height="500" preserveAspectRatio="xMidYMid meet" version="1.0"><defs><g/><clipPath id="f6d0da8331"><path d="M 114 164 L 176 164 L 176 213.746094 L 114 213.746094 Z M 114 164 " clip-rule="nonzero"/></clipPath><clipPath id="2c8df9d7b0"><path d="M 98.039062 59.246094 L 277.289062 59.246094 L 277.289062 213.746094 L 98.039062 213.746094 Z M 98.039062 59.246094 " clip-rule="nonzero"/></clipPath></defs><rect x="-37.5" width="450" fill="#ffffff" y="-37.499999" height="449.999989" fill-opacity="1"/><rect x="-37.5" width="450" fill="#ffffff" y="-37.499999" height="449.999989" fill-opacity="1"/><rect x="-37.5" width="450" fill="#ffffff" y="-37.499999" height="449.999989" fill-opacity="1"/><path fill="#2180a5" d="M 118.769531 151.859375 L 157.9375 133.761719 C 157.675781 132.878906 157.542969 131.9375 157.542969 130.96875 C 157.542969 128.640625 158.339844 126.5 159.675781 124.792969 L 137.628906 103.148438 C 136.164062 103.972656 134.484375 104.4375 132.683594 104.4375 C 131.0625 104.4375 129.527344 104.046875 128.164062 103.367188 L 112.4375 148.457031 C 114.957031 148.777344 117.203125 150.019531 118.785156 151.84375 Z M 118.769531 151.859375 " fill-opacity="1" fill-rule="evenodd"/><path fill="#0495c1" d="M 159.082031 136.304688 L 120.320312 154.214844 C 120.914062 155.503906 121.25 156.933594 121.25 158.441406 C 121.25 159.566406 121.0625 160.636719 120.726562 161.652344 L 170.066406 178.214844 C 170.851562 175.640625 172.648438 173.5 174.996094 172.269531 L 168.457031 140.992188 C 168.183594 141.023438 167.90625 141.023438 167.632812 141.023438 C 164.023438 141.023438 160.863281 139.140625 159.082031 136.292969 Z M 159.082031 136.304688 " fill-opacity="1" fill-rule="evenodd"/><g clip-path="url(#f6d0da8331)"><path fill="#2180a5" d="M 169.617188 181.023438 L 119.453125 164.183594 C 118.351562 165.773438 116.800781 167.03125 114.972656 167.769531 L 124.480469 182.394531 L 159.992188 196.761719 L 161.140625 197.222656 L 160.820312 198.410156 L 156.761719 213.484375 L 170.3125 213.746094 L 175.429688 190.28125 C 171.996094 188.675781 169.605469 185.1875 169.605469 181.152344 L 169.605469 181.007812 Z M 169.617188 181.023438 " fill-opacity="1" fill-rule="evenodd"/></g><path fill="#2180a5" d="M 171.183594 140.386719 L 177.648438 171.316406 C 178.316406 171.171875 178.996094 171.097656 179.707031 171.097656 C 185.273438 171.097656 189.796875 175.609375 189.796875 181.167969 L 189.796875 181.253906 L 212.84375 181.46875 L 223.234375 168.191406 C 221.816406 166.453125 220.945312 164.226562 220.945312 161.808594 C 220.945312 161 221.046875 160.21875 221.21875 159.480469 L 176.023438 136.539062 C 174.867188 138.273438 173.167969 139.632812 171.183594 140.386719 Z M 171.183594 140.386719 " fill-opacity="1" fill-rule="evenodd"/><path fill="#53c5d6" d="M 177.242188 134.007812 L 222.25 156.863281 C 223.0625 155.429688 224.207031 154.230469 225.582031 153.347656 L 214.160156 114.96875 C 209.4375 114.144531 205.839844 110.019531 205.839844 105.058594 C 205.839844 102.164062 207.074219 99.546875 209.03125 97.710938 L 204.421875 82.203125 C 203.753906 82.347656 203.058594 82.417969 202.347656 82.417969 C 200.78125 82.417969 199.304688 82.058594 197.96875 81.421875 L 173.820312 123.054688 C 176.183594 124.890625 177.691406 127.757812 177.691406 130.984375 C 177.691406 132.039062 177.53125 133.066406 177.226562 134.019531 Z M 177.242188 134.007812 " fill-opacity="1" fill-rule="evenodd"/><path fill="#0495c1" d="M 171.414062 121.636719 L 195.652344 79.84375 C 194.316406 78.65625 193.304688 77.109375 192.738281 75.375 L 142.28125 91.332031 C 142.585938 92.285156 142.746094 93.3125 142.746094 94.367188 C 142.746094 97.117188 141.644531 99.605469 139.847656 101.429688 L 161.660156 122.839844 C 163.328125 121.621094 165.386719 120.898438 167.617188 120.898438 C 168.964844 120.898438 170.242188 121.160156 171.414062 121.636719 Z M 171.414062 121.636719 " fill-opacity="1" fill-rule="evenodd"/><path fill="#53c5d6" d="M 215.929688 94.976562 C 220.859375 94.976562 224.972656 98.507812 225.84375 103.179688 L 260.195312 106.449219 C 260.253906 105.78125 260.386719 105.132812 260.574219 104.507812 L 211.191406 77.195312 C 210.234375 78.902344 208.8125 80.308594 207.074219 81.21875 L 211.464844 96.003906 C 212.8125 95.335938 214.335938 94.960938 215.929688 94.960938 Z M 215.929688 94.976562 " fill-opacity="1" fill-rule="evenodd"/><path fill="#53c5d6" d="M 260.328125 109.269531 L 225.972656 106 C 225.742188 108.386719 224.699219 110.511719 223.105469 112.117188 L 259.53125 148.109375 C 261.355469 146.273438 263.894531 145.128906 266.691406 145.128906 C 266.9375 145.128906 267.167969 145.144531 267.414062 145.160156 L 269.414062 117.441406 C 264.851562 117.082031 261.152344 113.679688 260.328125 109.269531 Z M 260.328125 109.269531 " fill-opacity="1" fill-rule="evenodd"/><path fill="#0fa5cd" d="M 257.835938 150.382812 L 220.859375 113.839844 C 219.726562 114.460938 218.464844 114.894531 217.132812 115.039062 L 228.175781 152.160156 C 229.089844 151.886719 230.046875 151.742188 231.046875 151.742188 C 235.875 151.742188 239.917969 155.125 240.902344 159.65625 L 257.023438 158.019531 C 256.761719 157.125 256.617188 156.167969 256.617188 155.183594 C 256.617188 153.433594 257.066406 151.800781 257.847656 150.367188 Z M 257.835938 150.382812 " fill-opacity="1" fill-rule="evenodd"/><g clip-path="url(#2c8df9d7b0)"><path fill="#373435" d="M 119.351562 181.253906 L 109.058594 165.441406 C 108.753906 165.46875 108.4375 165.484375 108.117188 165.484375 C 102.550781 165.484375 98.027344 160.972656 98.027344 155.417969 C 98.027344 150.441406 101.636719 146.316406 106.390625 145.492188 L 122.726562 98.679688 C 120.769531 96.84375 119.554688 94.238281 119.554688 91.34375 C 119.554688 85.789062 124.074219 81.277344 129.640625 81.277344 C 133.136719 81.277344 136.222656 83.054688 138.035156 85.746094 L 189.257812 69.542969 C 189.257812 69.457031 189.257812 69.371094 189.257812 69.296875 C 189.257812 63.742188 193.78125 59.230469 199.347656 59.230469 C 204.914062 59.230469 209.4375 63.742188 209.4375 69.296875 C 209.4375 70.066406 209.347656 70.816406 209.1875 71.539062 L 258.734375 98.941406 C 260.53125 96.148438 263.660156 94.3125 267.226562 94.3125 C 272.792969 94.3125 277.316406 98.824219 277.316406 104.378906 C 277.316406 109.253906 273.835938 113.320312 269.226562 114.246094 L 267.167969 142.730469 C 271.011719 144.148438 273.765625 147.835938 273.765625 152.175781 C 273.765625 157.730469 269.242188 162.246094 263.675781 162.246094 C 260.152344 162.246094 257.035156 160.4375 255.238281 157.6875 L 238.078125 159.421875 C 237.746094 164.6875 233.367188 168.839844 228.019531 168.839844 C 225.886719 168.839844 223.902344 168.175781 222.277344 167.046875 L 211.59375 180.6875 L 211.175781 181.238281 L 210.480469 181.238281 L 186.34375 181.023438 C 185.097656 185.171875 181.242188 188.210938 176.675781 188.210938 C 176.140625 188.210938 175.621094 188.167969 175.097656 188.09375 L 169.777344 212.441406 L 169.53125 213.570312 L 168.371094 213.542969 L 151.875 213.222656 L 150.078125 213.195312 L 150.542969 211.472656 L 154.746094 195.878906 L 119.972656 181.816406 L 119.320312 181.28125 Z M 136.832031 98.40625 L 158.644531 119.816406 C 160.3125 118.597656 162.371094 117.875 164.601562 117.875 C 165.953125 117.875 167.226562 118.136719 168.402344 118.613281 L 192.636719 76.820312 C 191.304688 75.632812 190.289062 74.085938 189.722656 72.351562 L 139.265625 88.308594 C 139.570312 89.261719 139.730469 90.289062 139.730469 91.34375 C 139.730469 94.09375 138.628906 96.582031 136.832031 98.40625 Z M 208.160156 74.171875 C 207.203125 75.878906 205.78125 77.285156 204.042969 78.195312 L 208.4375 92.980469 C 209.785156 92.3125 211.304688 91.9375 212.898438 91.9375 C 218.464844 91.9375 222.988281 96.453125 222.988281 102.007812 C 222.988281 107.171875 219.105469 111.410156 214.089844 112.003906 L 225.132812 149.125 C 226.046875 148.847656 227.003906 148.703125 228.003906 148.703125 C 232.832031 148.703125 236.875 152.089844 237.859375 156.617188 L 253.980469 154.980469 C 253.71875 154.085938 253.574219 153.128906 253.574219 152.148438 C 253.574219 146.59375 258.09375 142.078125 263.660156 142.078125 C 263.90625 142.078125 264.140625 142.09375 264.386719 142.105469 L 266.386719 114.390625 C 261.195312 113.96875 257.125 109.644531 257.125 104.363281 C 257.125 103.367188 257.269531 102.398438 257.542969 101.472656 L 208.160156 74.160156 Z M 220.207031 165.152344 C 218.785156 163.417969 217.914062 161.1875 217.914062 158.773438 C 217.914062 157.960938 218.015625 157.179688 218.191406 156.441406 L 172.996094 133.5 C 171.835938 135.234375 170.140625 136.59375 168.15625 137.347656 L 174.621094 168.277344 C 175.285156 168.132812 175.96875 168.058594 176.675781 168.058594 C 182.242188 168.058594 186.765625 172.574219 186.765625 178.128906 L 186.765625 178.214844 L 209.8125 178.433594 Z M 172.414062 187.257812 C 168.980469 185.652344 166.601562 182.164062 166.601562 178.128906 C 166.601562 178.085938 166.601562 178.027344 166.601562 177.984375 L 116.4375 161.144531 C 115.335938 162.734375 113.785156 163.996094 111.957031 164.734375 L 121.464844 179.359375 L 156.980469 193.722656 L 158.125 194.1875 L 157.804688 195.371094 L 153.746094 210.445312 L 167.300781 210.707031 L 172.414062 187.242188 Z M 109.390625 145.433594 C 111.914062 145.753906 114.160156 146.996094 115.742188 148.820312 L 154.90625 130.722656 C 154.644531 129.839844 154.515625 128.898438 154.515625 127.929688 C 154.515625 125.601562 155.3125 123.460938 156.644531 121.753906 L 134.597656 100.113281 C 133.136719 100.9375 131.453125 101.398438 129.65625 101.398438 C 128.03125 101.398438 126.496094 101.007812 125.132812 100.328125 L 109.40625 145.421875 Z M 167.039062 175.191406 C 167.820312 172.617188 169.617188 170.476562 171.964844 169.246094 L 165.429688 137.96875 C 165.152344 138 164.878906 138 164.601562 138 C 160.992188 138 157.835938 136.117188 156.050781 133.269531 L 117.292969 151.175781 C 117.886719 152.464844 118.21875 153.898438 118.21875 155.402344 C 118.21875 156.53125 118.03125 157.601562 117.699219 158.613281 L 167.039062 175.175781 Z M 211.144531 111.917969 C 206.421875 111.089844 202.828125 106.96875 202.828125 102.007812 C 202.828125 99.113281 204.058594 96.496094 206.015625 94.65625 L 201.40625 79.148438 C 200.738281 79.292969 200.042969 79.367188 199.332031 79.367188 C 197.765625 79.367188 196.273438 79.003906 194.957031 78.367188 L 170.808594 120.003906 C 173.167969 121.839844 174.675781 124.703125 174.675781 127.929688 C 174.675781 128.988281 174.519531 130.011719 174.214844 130.96875 L 219.21875 153.824219 C 220.03125 152.394531 221.175781 151.191406 222.554688 150.308594 L 211.132812 111.929688 Z M 211.144531 111.917969 " fill-opacity="1" fill-rule="nonzero"/></g><path fill="#373435" d="M 263.847656 156.296875 L 208.144531 101.238281 L 209.261719 98.867188 L 268.53125 104.507812 L 268.269531 107.285156 L 212.898438 102.019531 L 265.820312 154.316406 Z M 263.847656 156.296875 " fill-opacity="1" fill-rule="nonzero"/><g fill="#000000" fill-opacity="1"><g transform="translate(67.4415, 273.95787)"><g><path d="M 26.171875 -21.5625 C 32.210938 -19.976562 35.234375 -16.617188 35.234375 -11.484375 C 35.234375 -9.359375 34.910156 -7.695312 34.265625 -6.5 C 33.617188 -5.3125 32.894531 -4.351562 32.09375 -3.625 C 29.46875 -1.207031 24.957031 0 18.5625 0 L 2 0 L 2 -3 C 3.90625 -3 5.09375 -3.164062 5.5625 -3.5 C 6.039062 -3.84375 6.320312 -4.203125 6.40625 -4.578125 C 6.5 -4.960938 6.546875 -5.429688 6.546875 -5.984375 L 6.546875 -34.953125 C 6.546875 -36.140625 6.347656 -36.878906 5.953125 -37.171875 C 5.222656 -37.679688 3.894531 -37.9375 1.96875 -37.9375 L 1.96875 -40.9375 L 17.171875 -40.9375 C 24.535156 -40.9375 29.363281 -39.191406 31.65625 -35.703125 C 32.5625 -34.316406 33.015625 -32.703125 33.015625 -30.859375 C 33.015625 -26.535156 30.734375 -23.4375 26.171875 -21.5625 Z M 16.40625 -22.4375 C 21.5 -22.539062 24.597656 -24.03125 25.703125 -26.90625 C 26.066406 -27.851562 26.25 -28.910156 26.25 -30.078125 C 26.25 -32.535156 25.523438 -34.457031 24.078125 -35.84375 C 22.640625 -37.238281 20.160156 -37.9375 16.640625 -37.9375 L 12.6875 -37.9375 L 12.6875 -22.4375 Z M 18.03125 -3 C 23.457031 -3 26.753906 -4.765625 27.921875 -8.296875 C 28.265625 -9.335938 28.4375 -10.46875 28.4375 -11.6875 C 28.4375 -14.195312 27.484375 -16.1875 25.578125 -17.65625 C 23.679688 -19.132812 21.078125 -19.90625 17.765625 -19.96875 C 17.378906 -19.96875 16.984375 -19.96875 16.578125 -19.96875 C 16.179688 -19.96875 15.773438 -19.96875 15.359375 -19.96875 L 12.6875 -19.96875 L 12.6875 -3 Z M 18.03125 -3 "/></g></g></g><g fill="#000000" fill-opacity="1"><g transform="translate(103.51654, 273.95787)"><g><path d="M 2.234375 -3 C 3.796875 -3 4.773438 -3.15625 5.171875 -3.46875 C 5.578125 -3.789062 5.820312 -4.132812 5.90625 -4.5 C 5.988281 -4.863281 6.03125 -5.320312 6.03125 -5.875 L 6.03125 -20.90625 C 6.03125 -22.21875 5.914062 -23.070312 5.6875 -23.46875 C 5.457031 -23.863281 4.84375 -24.0625 3.84375 -24.0625 L 2.1875 -24.0625 L 2.1875 -27.078125 C 3.914062 -27.078125 5.253906 -27.207031 6.203125 -27.46875 C 7.160156 -27.726562 7.84375 -27.914062 8.25 -28.03125 C 8.664062 -28.15625 9.109375 -28.21875 9.578125 -28.21875 C 10.503906 -28.21875 11.125 -27.941406 11.4375 -27.390625 C 11.757812 -26.847656 11.921875 -25.957031 11.921875 -24.71875 L 11.921875 -24.171875 C 13.484375 -26.015625 15.257812 -27.253906 17.25 -27.890625 C 17.957031 -28.109375 18.664062 -28.21875 19.375 -28.21875 C 20.738281 -28.21875 21.796875 -27.828125 22.546875 -27.046875 C 23.304688 -26.265625 23.6875 -25.300781 23.6875 -24.15625 C 23.6875 -23.007812 23.320312 -22.070312 22.59375 -21.34375 C 21.863281 -20.613281 20.984375 -20.25 19.953125 -20.25 C 18.929688 -20.25 18.085938 -20.613281 17.421875 -21.34375 C 16.753906 -22.070312 16.457031 -22.976562 16.53125 -24.0625 C 15.789062 -23.957031 14.992188 -23.617188 14.140625 -23.046875 C 13.296875 -22.472656 12.554688 -21.695312 11.921875 -20.71875 L 11.921875 -6.109375 C 11.921875 -5.421875 11.976562 -4.867188 12.09375 -4.453125 C 12.21875 -4.046875 12.539062 -3.703125 13.0625 -3.421875 C 13.582031 -3.140625 15.140625 -3 17.734375 -3 L 17.734375 0 L 2.234375 0 Z M 2.234375 -3 "/></g></g></g><g fill="#000000" fill-opacity="1"><g transform="translate(126.875601, 273.95787)"><g><path d="M 26.0625 -6.515625 C 26.0625 -4.359375 26.488281 -3.28125 27.34375 -3.28125 C 28.164062 -3.28125 28.765625 -3.554688 29.140625 -4.109375 C 29.523438 -4.660156 29.71875 -5.664062 29.71875 -7.125 L 32.578125 -7.125 C 32.597656 -6.882812 32.609375 -6.507812 32.609375 -6 C 32.609375 -4.363281 32.203125 -2.945312 31.390625 -1.75 C 30.390625 -0.21875 28.796875 0.546875 26.609375 0.546875 C 25.191406 0.546875 23.984375 0.144531 22.984375 -0.65625 C 21.984375 -1.457031 21.289062 -2.515625 20.90625 -3.828125 C 18.269531 -0.910156 14.929688 0.546875 10.890625 0.546875 C 8.671875 0.546875 6.738281 -0.101562 5.09375 -1.40625 C 3.445312 -2.707031 2.625 -4.519531 2.625 -6.84375 C 2.625 -10.882812 5.609375 -13.867188 11.578125 -15.796875 C 15.359375 -17.003906 17.617188 -17.835938 18.359375 -18.296875 C 19.109375 -18.765625 19.597656 -19.238281 19.828125 -19.71875 C 20.054688 -20.195312 20.171875 -20.738281 20.171875 -21.34375 C 20.171875 -22.414062 19.640625 -23.3125 18.578125 -24.03125 C 17.523438 -24.75 16.148438 -25.109375 14.453125 -25.109375 C 12.765625 -25.109375 11.273438 -24.65625 9.984375 -23.75 C 10.898438 -23.070312 11.359375 -22.203125 11.359375 -21.140625 C 11.359375 -20.085938 11.003906 -19.242188 10.296875 -18.609375 C 9.597656 -17.972656 8.753906 -17.65625 7.765625 -17.65625 C 6.773438 -17.65625 5.957031 -17.953125 5.3125 -18.546875 C 4.664062 -19.148438 4.34375 -19.988281 4.34375 -21.0625 C 4.34375 -23.195312 5.414062 -24.921875 7.5625 -26.234375 C 9.707031 -27.554688 12.316406 -28.21875 15.390625 -28.21875 C 20.890625 -28.21875 24.25 -26.4375 25.46875 -22.875 C 25.863281 -21.6875 26.0625 -20.320312 26.0625 -18.78125 Z M 14.03125 -13.3125 C 12.425781 -12.625 11.222656 -11.738281 10.421875 -10.65625 C 9.617188 -9.570312 9.21875 -8.394531 9.21875 -7.125 C 9.21875 -5.851562 9.5625 -4.890625 10.25 -4.234375 C 10.945312 -3.578125 11.816406 -3.25 12.859375 -3.25 C 14.960938 -3.25 16.707031 -3.988281 18.09375 -5.46875 C 19.476562 -6.957031 20.171875 -9.03125 20.171875 -11.6875 L 20.171875 -15.890625 C 19.003906 -15.285156 17.769531 -14.738281 16.46875 -14.25 C 15.164062 -13.757812 14.351562 -13.445312 14.03125 -13.3125 Z M 14.03125 -13.3125 "/></g></g></g><g fill="#000000" fill-opacity="1"><g transform="translate(157.738727, 273.95787)"><g><path d="M 9.203125 -33.265625 C 8.015625 -33.265625 7.003906 -33.660156 6.171875 -34.453125 C 5.347656 -35.242188 4.9375 -36.210938 4.9375 -37.359375 C 4.9375 -38.523438 5.351562 -39.507812 6.1875 -40.3125 C 7.03125 -41.125 8.035156 -41.53125 9.203125 -41.53125 C 10.359375 -41.53125 11.351562 -41.125 12.1875 -40.3125 C 13.03125 -39.507812 13.453125 -38.523438 13.453125 -37.359375 C 13.453125 -36.210938 13.035156 -35.242188 12.203125 -34.453125 C 11.378906 -33.660156 10.378906 -33.265625 9.203125 -33.265625 Z M 2.234375 -3 C 3.929688 -3 4.992188 -3.15625 5.421875 -3.46875 C 5.847656 -3.789062 6.101562 -4.132812 6.1875 -4.5 C 6.28125 -4.863281 6.328125 -5.320312 6.328125 -5.875 L 6.328125 -20.90625 C 6.328125 -22.21875 6.210938 -23.070312 5.984375 -23.46875 C 5.765625 -23.863281 5.148438 -24.0625 4.140625 -24.0625 L 2.1875 -24.0625 L 2.1875 -27.078125 C 3.96875 -27.078125 5.367188 -27.207031 6.390625 -27.46875 C 7.410156 -27.726562 8.128906 -27.914062 8.546875 -28.03125 C 8.960938 -28.15625 9.414062 -28.21875 9.90625 -28.21875 C 10.851562 -28.21875 11.472656 -27.9375 11.765625 -27.375 C 12.066406 -26.820312 12.21875 -25.9375 12.21875 -24.71875 L 12.21875 -5.875 C 12.21875 -4.71875 12.398438 -4 12.765625 -3.71875 C 13.390625 -3.238281 14.566406 -3 16.296875 -3 L 16.296875 0 L 2.234375 0 Z M 2.234375 -3 "/></g></g></g><g fill="#000000" fill-opacity="1"><g transform="translate(174.903524, 273.95787)"><g><path d="M 19.15625 -24.125 C 16.175781 -24.125 13.757812 -23.195312 11.90625 -21.34375 L 11.90625 -5.875 C 11.90625 -4.738281 12.082031 -4.023438 12.4375 -3.734375 C 13.082031 -3.242188 14.285156 -3 16.046875 -3 L 16.046875 0 L 2.1875 0 L 2.1875 -3 C 3.75 -3 4.726562 -3.15625 5.125 -3.46875 C 5.53125 -3.789062 5.773438 -4.132812 5.859375 -4.5 C 5.953125 -4.863281 6 -5.320312 6 -5.875 L 6 -20.734375 C 6 -22.046875 5.882812 -22.898438 5.65625 -23.296875 C 5.4375 -23.703125 4.816406 -23.90625 3.796875 -23.90625 L 2.125 -23.90625 L 2.125 -26.90625 C 3.832031 -26.90625 5.171875 -27.035156 6.140625 -27.296875 C 7.117188 -27.566406 7.8125 -27.757812 8.21875 -27.875 C 8.632812 -27.988281 9.078125 -28.046875 9.546875 -28.046875 C 10.515625 -28.046875 11.148438 -27.769531 11.453125 -27.21875 C 11.753906 -26.664062 11.90625 -25.78125 11.90625 -24.5625 C 13.84375 -26.195312 16.097656 -27.304688 18.671875 -27.890625 C 19.523438 -28.085938 20.359375 -28.1875 21.171875 -28.1875 C 27.066406 -28.1875 30.015625 -24.285156 30.015625 -16.484375 L 30.015625 -5.921875 C 30.015625 -4.722656 30.1875 -3.9375 30.53125 -3.5625 C 30.882812 -3.1875 31.832031 -3 33.375 -3 L 33.375 0 L 20.46875 0 L 20.46875 -3 C 22.125 -3 23.117188 -3.164062 23.453125 -3.5 C 23.785156 -3.84375 23.976562 -4.195312 24.03125 -4.5625 C 24.09375 -4.925781 24.125 -5.378906 24.125 -5.921875 L 24.125 -16.125 C 24.125 -18.65625 23.890625 -20.394531 23.421875 -21.34375 C 22.484375 -23.195312 21.0625 -24.125 19.15625 -24.125 Z M 19.15625 -24.125 "/></g></g></g><g fill="#53c5d6" fill-opacity="1"><g transform="translate(208.733072, 273.95787)"><g><path d="M 26.171875 -21.5625 C 32.210938 -19.976562 35.234375 -16.617188 35.234375 -11.484375 C 35.234375 -9.359375 34.910156 -7.695312 34.265625 -6.5 C 33.617188 -5.3125 32.894531 -4.351562 32.09375 -3.625 C 29.46875 -1.207031 24.957031 0 18.5625 0 L 2 0 L 2 -3 C 3.90625 -3 5.09375 -3.164062 5.5625 -3.5 C 6.039062 -3.84375 6.320312 -4.203125 6.40625 -4.578125 C 6.5 -4.960938 6.546875 -5.429688 6.546875 -5.984375 L 6.546875 -34.953125 C 6.546875 -36.140625 6.347656 -36.878906 5.953125 -37.171875 C 5.222656 -37.679688 3.894531 -37.9375 1.96875 -37.9375 L 1.96875 -40.9375 L 17.171875 -40.9375 C 24.535156 -40.9375 29.363281 -39.191406 31.65625 -35.703125 C 32.5625 -34.316406 33.015625 -32.703125 33.015625 -30.859375 C 33.015625 -26.535156 30.734375 -23.4375 26.171875 -21.5625 Z M 16.40625 -22.4375 C 21.5 -22.539062 24.597656 -24.03125 25.703125 -26.90625 C 26.066406 -27.851562 26.25 -28.910156 26.25 -30.078125 C 26.25 -32.535156 25.523438 -34.457031 24.078125 -35.84375 C 22.640625 -37.238281 20.160156 -37.9375 16.640625 -37.9375 L 12.6875 -37.9375 L 12.6875 -22.4375 Z M 18.03125 -3 C 23.457031 -3 26.753906 -4.765625 27.921875 -8.296875 C 28.265625 -9.335938 28.4375 -10.46875 28.4375 -11.6875 C 28.4375 -14.195312 27.484375 -16.1875 25.578125 -17.65625 C 23.679688 -19.132812 21.078125 -19.90625 17.765625 -19.96875 C 17.378906 -19.96875 16.984375 -19.96875 16.578125 -19.96875 C 16.179688 -19.96875 15.773438 -19.96875 15.359375 -19.96875 L 12.6875 -19.96875 L 12.6875 -3 Z M 18.03125 -3 "/></g></g></g><g fill="#53c5d6" fill-opacity="1"><g transform="translate(244.808112, 273.95787)"><g><path d="M 2.453125 -13.96875 C 2.453125 -16.15625 2.789062 -18.171875 3.46875 -20.015625 C 4.15625 -21.859375 5.109375 -23.390625 6.328125 -24.609375 C 8.734375 -27.015625 11.925781 -28.21875 15.90625 -28.21875 C 19.925781 -28.21875 23.171875 -27.007812 25.640625 -24.59375 C 28.109375 -22.1875 29.34375 -18.769531 29.34375 -14.34375 C 29.34375 -9.914062 28.203125 -6.328125 25.921875 -3.578125 C 23.648438 -0.828125 20.3125 0.546875 15.90625 0.546875 C 11.507812 0.546875 8.164062 -0.785156 5.875 -3.453125 C 3.59375 -6.117188 2.453125 -9.625 2.453125 -13.96875 Z M 15.90625 -2.734375 C 18.019531 -2.734375 19.734375 -3.695312 21.046875 -5.625 C 22.367188 -7.550781 23.03125 -10.257812 23.03125 -13.75 C 23.03125 -19.375 21.613281 -22.882812 18.78125 -24.28125 C 17.90625 -24.71875 16.945312 -24.9375 15.90625 -24.9375 C 12.539062 -24.9375 10.347656 -22.898438 9.328125 -18.828125 C 8.960938 -17.429688 8.78125 -15.796875 8.78125 -13.921875 C 8.78125 -10.316406 9.441406 -7.550781 10.765625 -5.625 C 12.085938 -3.695312 13.800781 -2.734375 15.90625 -2.734375 Z M 15.90625 -2.734375 "/></g></g></g><g fill="#53c5d6" fill-opacity="1"><g transform="translate(275.480225, 273.95787)"><g><path d="M 1.140625 -3 C 2.304688 -3 3.269531 -3.257812 4.03125 -3.78125 C 4.800781 -4.3125 5.53125 -5.007812 6.21875 -5.875 L 12.984375 -13.859375 L 6.21875 -22.078125 C 5.601562 -22.835938 4.835938 -23.457031 3.921875 -23.9375 C 3.015625 -24.425781 2.085938 -24.671875 1.140625 -24.671875 L 1.140625 -27.671875 L 15.46875 -27.671875 L 15.46875 -24.671875 C 14.363281 -24.671875 13.609375 -24.488281 13.203125 -24.125 C 12.492188 -23.445312 12.414062 -22.765625 12.96875 -22.078125 L 17.296875 -16.5625 L 21.640625 -22.078125 C 22.253906 -22.835938 22.1875 -23.457031 21.4375 -23.9375 C 20.695312 -24.425781 19.492188 -24.671875 17.828125 -24.671875 L 17.828125 -27.671875 L 30.84375 -27.671875 L 30.84375 -24.671875 C 29.675781 -24.671875 28.707031 -24.4375 27.9375 -23.96875 C 27.175781 -23.507812 26.460938 -22.878906 25.796875 -22.078125 L 19.109375 -14.296875 L 25.796875 -5.875 C 27.265625 -3.957031 28.945312 -3 30.84375 -3 L 30.84375 0 L 16.53125 0 L 16.53125 -3 C 17.957031 -3 18.988281 -3.28125 19.625 -3.84375 C 20.257812 -4.40625 20.257812 -5.082031 19.625 -5.875 L 14.90625 -11.578125 L 10.375 -5.875 C 9.71875 -5.03125 9.769531 -4.335938 10.53125 -3.796875 C 11.300781 -3.265625 12.519531 -3 14.1875 -3 L 14.1875 0 L 1.140625 0 Z M 1.140625 -3 "/></g></g></g><g fill="#000000" fill-opacity="1"><g transform="translate(145.199372, 318.548327)"><g><path d="M 6.796875 0.171875 C 5.660156 0.171875 4.65625 -0.0546875 3.78125 -0.515625 C 2.914062 -0.972656 2.242188 -1.609375 1.765625 -2.421875 C 1.285156 -3.242188 1.046875 -4.191406 1.046875 -5.265625 L 1.046875 -10.234375 C 1.046875 -11.316406 1.285156 -12.269531 1.765625 -13.09375 C 2.242188 -13.914062 2.914062 -14.550781 3.78125 -15 C 4.65625 -15.457031 5.660156 -15.6875 6.796875 -15.6875 C 7.921875 -15.6875 8.914062 -15.460938 9.78125 -15.015625 C 10.644531 -14.578125 11.316406 -13.976562 11.796875 -13.21875 C 12.273438 -12.457031 12.515625 -11.609375 12.515625 -10.671875 L 12.515625 -10.640625 C 12.515625 -10.390625 12.390625 -10.265625 12.140625 -10.265625 L 9.765625 -10.265625 C 9.648438 -10.265625 9.554688 -10.28125 9.484375 -10.3125 C 9.421875 -10.351562 9.390625 -10.394531 9.390625 -10.4375 L 9.390625 -10.59375 C 9.390625 -11.269531 9.148438 -11.835938 8.671875 -12.296875 C 8.203125 -12.765625 7.578125 -13 6.796875 -13 C 6.003906 -13 5.367188 -12.75 4.890625 -12.25 C 4.410156 -11.757812 4.171875 -11.117188 4.171875 -10.328125 L 4.171875 -5.1875 C 4.171875 -4.382812 4.425781 -3.734375 4.9375 -3.234375 C 5.457031 -2.742188 6.113281 -2.5 6.90625 -2.5 C 7.675781 -2.5 8.289062 -2.703125 8.75 -3.109375 C 9.207031 -3.515625 9.4375 -4.082031 9.4375 -4.8125 L 9.4375 -5.78125 C 9.4375 -5.875 9.394531 -5.921875 9.3125 -5.921875 L 6.953125 -5.921875 C 6.703125 -5.921875 6.578125 -6.046875 6.578125 -6.296875 L 6.578125 -8.109375 C 6.578125 -8.359375 6.703125 -8.484375 6.953125 -8.484375 L 12.140625 -8.484375 C 12.390625 -8.484375 12.515625 -8.359375 12.515625 -8.109375 L 12.515625 -5.296875 C 12.515625 -4.171875 12.273438 -3.191406 11.796875 -2.359375 C 11.328125 -1.535156 10.660156 -0.90625 9.796875 -0.46875 C 8.941406 -0.0390625 7.941406 0.171875 6.796875 0.171875 Z M 6.796875 0.171875 "/></g></g></g><g fill="#000000" fill-opacity="1"><g transform="translate(162.259931, 318.548327)"><g><path d="M 11.328125 0 C 11.117188 0 10.976562 -0.101562 10.90625 -0.3125 L 10.28125 -2.375 C 10.269531 -2.445312 10.222656 -2.484375 10.140625 -2.484375 L 4.71875 -2.484375 C 4.644531 -2.484375 4.601562 -2.445312 4.59375 -2.375 L 3.96875 -0.3125 C 3.894531 -0.101562 3.753906 0 3.546875 0 L 0.96875 0 C 0.84375 0 0.75 -0.0390625 0.6875 -0.125 C 0.625 -0.207031 0.617188 -0.304688 0.671875 -0.421875 L 5.390625 -15.203125 C 5.460938 -15.410156 5.601562 -15.515625 5.8125 -15.515625 L 9.0625 -15.515625 C 9.269531 -15.515625 9.410156 -15.410156 9.484375 -15.203125 L 14.203125 -0.421875 C 14.210938 -0.390625 14.21875 -0.34375 14.21875 -0.28125 C 14.21875 -0.195312 14.1875 -0.128906 14.125 -0.078125 C 14.070312 -0.0234375 13.992188 0 13.890625 0 Z M 5.359375 -5.046875 C 5.347656 -4.941406 5.382812 -4.890625 5.46875 -4.890625 L 9.390625 -4.890625 C 9.484375 -4.890625 9.519531 -4.941406 9.5 -5.046875 L 7.515625 -11.8125 C 7.492188 -11.863281 7.460938 -11.890625 7.421875 -11.890625 C 7.390625 -11.890625 7.359375 -11.863281 7.328125 -11.8125 Z M 5.359375 -5.046875 "/></g></g></g><g fill="#000000" fill-opacity="1"><g transform="translate(180.738409, 318.548327)"><g><path d="M 1.75 0 C 1.5 0 1.375 -0.125 1.375 -0.375 L 1.375 -15.125 C 1.375 -15.382812 1.5 -15.515625 1.75 -15.515625 L 4.125 -15.515625 C 4.3125 -15.515625 4.457031 -15.429688 4.5625 -15.265625 L 7.78125 -10.078125 C 7.8125 -10.035156 7.84375 -10.015625 7.875 -10.015625 C 7.914062 -10.015625 7.941406 -10.035156 7.953125 -10.078125 L 11.21875 -15.265625 C 11.3125 -15.429688 11.457031 -15.515625 11.65625 -15.515625 L 14.03125 -15.515625 C 14.28125 -15.515625 14.40625 -15.382812 14.40625 -15.125 L 14.40625 -0.375 C 14.40625 -0.125 14.28125 0 14.03125 0 L 11.65625 0 C 11.40625 0 11.28125 -0.125 11.28125 -0.375 L 11.28125 -9.96875 C 11.28125 -10.03125 11.257812 -10.066406 11.21875 -10.078125 C 11.1875 -10.097656 11.15625 -10.078125 11.125 -10.015625 L 8.890625 -6.359375 C 8.785156 -6.191406 8.632812 -6.109375 8.4375 -6.109375 L 7.3125 -6.109375 C 7.125 -6.109375 6.976562 -6.191406 6.875 -6.359375 L 4.65625 -10.015625 C 4.625 -10.078125 4.585938 -10.097656 4.546875 -10.078125 C 4.515625 -10.066406 4.5 -10.03125 4.5 -9.96875 L 4.5 -0.375 C 4.5 -0.125 4.375 0 4.125 0 Z M 1.75 0 "/></g></g></g><g fill="#000000" fill-opacity="1"><g transform="translate(200.103093, 318.548327)"><g><path d="M 12.125 -13.203125 C 12.125 -12.953125 12 -12.828125 11.75 -12.828125 L 4.609375 -12.828125 C 4.515625 -12.828125 4.46875 -12.785156 4.46875 -12.703125 L 4.46875 -9.3125 C 4.46875 -9.21875 4.515625 -9.171875 4.609375 -9.171875 L 9.234375 -9.171875 C 9.484375 -9.171875 9.609375 -9.046875 9.609375 -8.796875 L 9.609375 -6.875 C 9.609375 -6.613281 9.484375 -6.484375 9.234375 -6.484375 L 4.609375 -6.484375 C 4.515625 -6.484375 4.46875 -6.441406 4.46875 -6.359375 L 4.46875 -2.8125 C 4.46875 -2.726562 4.515625 -2.6875 4.609375 -2.6875 L 11.75 -2.6875 C 12 -2.6875 12.125 -2.554688 12.125 -2.296875 L 12.125 -0.375 C 12.125 -0.125 12 0 11.75 0 L 1.734375 0 C 1.472656 0 1.34375 -0.125 1.34375 -0.375 L 1.34375 -15.125 C 1.34375 -15.382812 1.472656 -15.515625 1.734375 -15.515625 L 11.75 -15.515625 C 12 -15.515625 12.125 -15.382812 12.125 -15.125 Z M 12.125 -13.203125 "/></g></g></g><g fill="#000000" fill-opacity="1"><g transform="translate(216.6541, 318.548327)"><g><path d="M 6.609375 0.171875 C 5.453125 0.171875 4.4375 -0.015625 3.5625 -0.390625 C 2.695312 -0.773438 2.023438 -1.316406 1.546875 -2.015625 C 1.078125 -2.710938 0.84375 -3.523438 0.84375 -4.453125 L 0.84375 -4.828125 C 0.84375 -5.078125 0.96875 -5.203125 1.21875 -5.203125 L 3.546875 -5.203125 C 3.796875 -5.203125 3.921875 -5.109375 3.921875 -4.921875 L 3.921875 -4.609375 C 3.921875 -4.015625 4.1875 -3.515625 4.71875 -3.109375 C 5.257812 -2.703125 5.96875 -2.5 6.84375 -2.5 C 7.625 -2.5 8.203125 -2.664062 8.578125 -3 C 8.960938 -3.332031 9.15625 -3.742188 9.15625 -4.234375 C 9.15625 -4.585938 9.035156 -4.882812 8.796875 -5.125 C 8.554688 -5.375 8.238281 -5.585938 7.84375 -5.765625 C 7.445312 -5.953125 6.804688 -6.207031 5.921875 -6.53125 C 4.910156 -6.875 4.066406 -7.222656 3.390625 -7.578125 C 2.710938 -7.929688 2.132812 -8.414062 1.65625 -9.03125 C 1.1875 -9.644531 0.953125 -10.398438 0.953125 -11.296875 C 0.953125 -12.179688 1.179688 -12.957031 1.640625 -13.625 C 2.097656 -14.289062 2.734375 -14.800781 3.546875 -15.15625 C 4.367188 -15.507812 5.304688 -15.6875 6.359375 -15.6875 C 7.484375 -15.6875 8.488281 -15.484375 9.375 -15.078125 C 10.257812 -14.679688 10.945312 -14.125 11.4375 -13.40625 C 11.9375 -12.695312 12.1875 -11.867188 12.1875 -10.921875 L 12.1875 -10.703125 C 12.1875 -10.453125 12.0625 -10.328125 11.8125 -10.328125 L 9.484375 -10.328125 C 9.234375 -10.328125 9.109375 -10.398438 9.109375 -10.546875 L 9.109375 -10.765625 C 9.109375 -11.390625 8.851562 -11.914062 8.34375 -12.34375 C 7.832031 -12.78125 7.132812 -13 6.25 -13 C 5.539062 -13 4.992188 -12.851562 4.609375 -12.5625 C 4.222656 -12.269531 4.03125 -11.863281 4.03125 -11.34375 C 4.03125 -10.976562 4.140625 -10.664062 4.359375 -10.40625 C 4.585938 -10.15625 4.925781 -9.925781 5.375 -9.71875 C 5.820312 -9.519531 6.519531 -9.253906 7.46875 -8.921875 C 8.5 -8.546875 9.316406 -8.210938 9.921875 -7.921875 C 10.523438 -7.628906 11.066406 -7.1875 11.546875 -6.59375 C 12.035156 -6.007812 12.28125 -5.253906 12.28125 -4.328125 C 12.28125 -3.421875 12.046875 -2.628906 11.578125 -1.953125 C 11.109375 -1.273438 10.445312 -0.75 9.59375 -0.375 C 8.75 -0.0078125 7.753906 0.171875 6.609375 0.171875 Z M 6.609375 0.171875 "/></g></g></g></svg>